<svg xmlns="http://www.w3.org/2000/svg" viewBox="0 0 64 64" width="64" height="64">
  <radialGradient id="QUFjDv2sIQl9EDAYb2qNSa" cx="36.833" cy="35.917" r="26" gradientUnits="userSpaceOnUse"
                  spreadMethod="reflect">
    <stop offset="0" stop-color="#f4e9c3"/>
    <stop offset=".219" stop-color="#f8eecd"/>
    <stop offset=".644" stop-color="#fdf4dc"/>
    <stop offset="1" stop-color="#fff6e1"/>
  </radialGradient>
  <path fill="url(#QUFjDv2sIQl9EDAYb2qNSa)"
        d="M10,8L10,8c2.209,0,4-1.791,4-4v0c0-2.209-1.791-4-4-4h0C7.791,0,6,1.791,6,4v0 C6,6.209,7.791,8,10,8z"/>
  <radialGradient id="QUFjDv2sIQl9EDAYb2qNSb" cx="31.417" cy="29.917" r="28.77" gradientUnits="userSpaceOnUse"
                  spreadMethod="reflect">
    <stop offset="0" stop-color="#f4e9c3"/>
    <stop offset=".219" stop-color="#f8eecd"/>
    <stop offset=".644" stop-color="#fdf4dc"/>
    <stop offset="1" stop-color="#fff6e1"/>
  </radialGradient>
  <path fill="url(#QUFjDv2sIQl9EDAYb2qNSb)"
        d="M7.5,64L7.5,64c1.933,0,3.5-1.567,3.5-3.5v0c0-1.933-1.567-3.5-3.5-3.5h0 C5.567,57,4,58.567,4,60.5v0C4,62.433,5.567,64,7.5,64z"/>
  <radialGradient id="QUFjDv2sIQl9EDAYb2qNSc" cx="32.5" cy="32" r="31.751" gradientUnits="userSpaceOnUse"
                  spreadMethod="reflect">
    <stop offset="0" stop-color="#f4e9c3"/>
    <stop offset=".219" stop-color="#f8eecd"/>
    <stop offset=".644" stop-color="#fdf4dc"/>
    <stop offset="1" stop-color="#fff6e1"/>
  </radialGradient>
  <path fill="url(#QUFjDv2sIQl9EDAYb2qNSc)"
        d="M9,29H5c-2.209,0-4,1.791-4,4v0c0,2.209,1.791,4,4,4h0.5C7.433,37,9,38.567,9,40.5v0 C9,42.433,7.433,44,5.5,44H5c-2.209,0-4,1.791-4,4v0c0,2.209,1.791,4,4,4h12.5c1.381,0,2.5,1.119,2.5,2.5v0 c0,1.381-1.119,2.5-2.5,2.5h0c-1.933,0-3.5,1.567-3.5,3.5v0c0,1.933,1.567,3.5,3.5,3.5h30c1.933,0,3.5-1.567,3.5-3.5v0 c0-1.933-1.567-3.5-3.5-3.5H47c-1.105,0-2-0.895-2-2v0c0-1.105,0.895-2,2-2h13c2.209,0,4-1.791,4-4v0c0-2.209-1.791-4-4-4h-3.5 c-1.381,0-2.5-1.119-2.5-2.5v0c0-1.381,1.119-2.5,2.5-2.5H57c2.209,0,4-1.791,4-4v0c0-2.209-1.791-4-4-4h-1.5 c-1.933,0-3.5-1.567-3.5-3.5v0c0-1.933,1.567-3.5,3.5-3.5h2c2.485,0,4.5-2.015,4.5-4.5v0c0-2.485-2.015-4.5-4.5-4.5H49 c-2.209,0-4-1.791-4-4v0c0-2.209,1.791-4,4-4h2c2.209,0,4-1.791,4-4v0c0-2.209-1.791-4-4-4L20,0c-2.209,0-4,1.791-4,4v0 c0,2.209,1.791,4,4,4h2c1.657,0,3,1.343,3,3v0c0,1.657-1.343,3-3,3H7.5C5.567,14,4,15.567,4,17.5v0C4,19.433,5.567,21,7.5,21H9 c2.209,0,4,1.791,4,4v0C13,27.209,11.209,29,9,29z"/>
  <linearGradient id="QUFjDv2sIQl9EDAYb2qNSd" x1="31.5" x2="31.5" y1="60" y2="7" gradientUnits="userSpaceOnUse"
                  spreadMethod="reflect">
    <stop offset="0" stop-color="#37ab6a"/>
    <stop offset=".422" stop-color="#39b66f"/>
    <stop offset="1" stop-color="#3ac074"/>
  </linearGradient>
  <path fill="url(#QUFjDv2sIQl9EDAYb2qNSd)"
        d="M19,54c0-3.314,2.686-6,6-6s6,2.686,6,6c0,3.314-2.686,6-6,6S19,57.314,19,54z M51.5,42 c2.485,0,4.5-2.015,4.5-4.5S53.985,33,51.5,33S47,35.015,47,37.5S49.015,42,51.5,42z M49.5,26c2.485,0,4.5-2.015,4.5-4.5 S51.985,17,49.5,17S45,19.015,45,21.5S47.015,26,49.5,26z M38.827,8.171c-1.56-1.561-4.091-1.561-5.657,0.004 c-1.56,1.56-1.562,4.092,0,5.652c1.563,1.564,4.097,1.564,5.657,0.004C40.392,12.265,40.39,9.733,38.827,8.171z M12.12,23.879 c-1.172-1.172-3.071-1.172-4.243,0c-1.169,1.169-1.172,3.071,0,4.245c1.172,1.17,3.075,1.167,4.243,0 C13.295,26.95,13.292,25.051,12.12,23.879z M13.999,41.498c0.001-1.373-1.116-2.5-2.496-2.5c-1.382,0-2.505,1.126-2.505,2.5 c0,1.384,1.123,2.5,2.504,2.502C12.881,44,13.999,42.882,13.999,41.498z M19.5,18c1.933,0,3.5-1.567,3.5-3.5S21.433,11,19.5,11 S16,12.567,16,14.5S17.567,18,19.5,18z M45.535,47.464c-1.95-1.952-5.121-1.952-7.068-0.003c-1.956,1.954-1.955,5.123-0.003,7.074 c1.953,1.954,5.118,1.953,7.074-0.001C47.486,52.585,47.49,49.419,45.535,47.464z"/>
</svg>
